<?xml version="1.0" encoding="UTF-8" ?>
<!DOCTYPE svg PUBLIC "-//W3C//DTD SVG 1.1//EN" "http://www.w3.org/Graphics/SVG/1.1/DTD/svg11.dtd">
<svg width="430pt" height="215pt" viewBox="0 0 430 215" version="1.1" xmlns="http://www.w3.org/2000/svg">
<path fill="#bbe038" d=" M 0.00 0.00 L 143.00 0.00 C 143.00 71.67 143.00 143.33 143.00 215.00 L 0.00 215.00 L 0.00 0.00 Z" />
<path fill="#4d4141" d=" M 143.00 0.00 L 286.00 0.00 C 286.00 71.67 286.00 143.33 286.00 215.00 L 143.00 215.00 C 143.00 143.33 143.00 71.67 143.00 0.00 Z" />
<path fill="#c9e731" d=" M 286.00 0.00 L 430.00 0.00 L 430.00 215.00 L 286.00 215.00 C 286.00 143.33 286.00 71.67 286.00 0.00 Z" />
<path fill="#010b02" d=" M 208.62 45.52 C 209.16 45.50 209.71 45.51 210.26 45.55 C 210.10 49.87 212.07 53.79 212.88 57.94 C 214.98 68.24 214.73 78.96 212.85 89.27 C 208.28 88.14 204.88 84.69 200.67 82.79 C 198.27 81.54 195.97 80.11 193.59 78.82 C 191.14 77.71 188.46 77.48 185.82 77.24 C 185.56 76.06 185.31 74.89 185.05 73.72 C 181.16 72.30 177.22 70.98 173.24 69.80 C 174.40 69.02 175.57 68.23 176.74 67.44 C 176.46 67.27 175.92 66.95 175.64 66.78 C 168.95 62.92 163.01 57.48 159.13 50.76 C 162.90 52.52 166.16 55.15 169.77 57.21 C 178.15 62.09 187.64 64.47 196.87 67.20 C 201.74 68.58 206.52 70.42 211.57 71.09 C 212.21 62.48 211.05 53.79 208.62 45.52 Z" />
<path fill="#010b01" d=" M 227.72 45.92 C 231.17 54.14 230.64 63.14 231.13 71.84 C 240.14 70.93 248.34 66.91 256.61 63.52 C 262.46 61.00 267.87 57.61 273.50 54.67 C 273.39 56.23 273.34 57.98 271.90 58.95 C 268.48 61.93 264.71 64.48 260.95 66.98 C 258.70 68.50 255.83 69.74 255.23 72.71 C 259.95 71.08 264.07 68.05 268.95 66.85 C 266.90 69.23 264.75 71.52 262.60 73.81 C 262.35 73.33 261.87 72.38 261.62 71.90 C 259.27 72.76 257.01 73.80 254.68 74.70 C 253.90 74.98 252.34 75.54 251.56 75.82 C 250.85 76.72 250.13 77.62 249.42 78.52 C 246.76 78.69 244.04 78.99 241.67 80.33 C 239.52 81.41 237.41 82.56 235.26 83.64 C 231.24 85.78 227.14 87.84 222.67 88.84 C 225.12 81.73 228.40 74.71 228.64 67.07 C 229.41 60.00 228.93 52.90 227.72 45.92 Z" />
<path fill="#1e2018" d=" M 67.28 62.37 C 76.93 61.06 87.11 64.25 94.58 70.47 C 106.69 80.31 110.98 98.76 103.79 112.75 C 99.63 122.23 90.87 129.18 80.96 131.83 C 66.15 136.30 49.09 128.99 41.39 115.73 C 35.20 105.68 34.80 92.52 39.97 81.97 C 44.98 71.34 55.73 64.00 67.28 62.37 Z" />
<path fill="#1e1e25" d=" M 165.71 63.83 C 168.67 64.93 171.22 66.91 174.17 68.02 C 174.54 67.71 175.28 67.09 175.64 66.78 C 175.92 66.95 176.46 67.27 176.74 67.44 C 175.57 68.23 174.40 69.02 173.24 69.80 C 177.22 70.98 181.16 72.30 185.05 73.72 C 184.23 73.82 182.59 74.01 181.77 74.10 C 182.54 76.38 183.06 79.30 185.70 80.15 C 188.39 81.44 191.25 80.26 193.59 78.82 C 195.97 80.11 198.27 81.54 200.67 82.79 C 196.64 85.68 191.34 86.58 186.55 85.42 C 181.99 83.72 178.68 79.95 175.41 76.52 C 171.85 72.56 167.85 68.80 165.71 63.83 Z" />
<path fill="#ffffff" d=" M 42.11 83.09 C 47.91 70.97 61.57 63.21 74.97 64.63 C 85.27 65.69 95.04 71.71 100.25 80.72 C 104.78 88.16 105.88 97.41 103.83 105.81 C 101.25 116.32 93.07 125.16 82.89 128.74 C 75.18 131.55 66.40 131.27 58.89 127.99 C 50.56 124.54 44.10 117.39 40.69 109.13 C 37.73 100.67 38.02 91.13 42.11 83.09 Z" />
<path fill="#1e2026" d=" M 254.68 74.70 C 257.01 73.80 259.27 72.76 261.62 71.90 C 261.87 72.38 262.35 73.33 262.60 73.81 C 260.20 77.00 257.14 79.59 254.44 82.50 C 252.33 84.56 250.21 87.23 247.01 87.39 C 242.80 87.41 239.07 85.14 235.26 83.64 C 237.41 82.56 239.52 81.41 241.67 80.33 C 243.90 81.84 246.57 83.44 249.33 82.28 C 252.70 81.31 253.71 77.64 254.68 74.70 Z" />
<path fill="#75573c" d=" M 181.77 74.10 C 182.59 74.01 184.23 73.82 185.05 73.72 C 185.31 74.89 185.56 76.06 185.82 77.24 C 188.46 77.48 191.14 77.71 193.59 78.82 C 191.25 80.26 188.39 81.44 185.70 80.15 C 183.06 79.30 182.54 76.38 181.77 74.10 Z" />
<path fill="#fefeff" d=" M 342.28 79.56 C 346.13 77.01 350.20 74.07 355.03 74.01 C 361.21 73.48 368.12 74.75 372.28 79.76 C 374.80 81.59 373.82 84.86 373.96 87.51 C 369.78 92.30 363.58 95.52 357.10 94.83 C 351.44 95.30 346.55 92.01 342.23 88.79 C 341.10 85.76 340.99 82.56 342.28 79.56 Z" />
<path fill="#765733" d=" M 251.56 75.82 C 252.34 75.54 253.90 74.98 254.68 74.70 C 253.71 77.64 252.70 81.31 249.33 82.28 C 246.57 83.44 243.90 81.84 241.67 80.33 C 244.04 78.99 246.76 78.69 249.42 78.52 C 250.13 77.62 250.85 76.72 251.56 75.82 Z" />
<path fill="#181b1d" d=" M 66.47 80.43 C 74.15 77.78 83.43 81.39 87.34 88.50 C 91.37 95.15 90.34 104.38 84.94 109.98 C 82.59 112.60 79.26 113.94 76.11 115.30 C 70.87 116.05 65.28 115.32 61.04 111.93 C 55.28 107.70 52.40 99.77 54.49 92.88 C 55.97 87.02 60.72 82.19 66.47 80.43 Z" />
<path fill="#9dc9da" d=" M 67.45 82.67 C 75.69 80.12 85.20 85.55 86.93 94.04 C 89.48 103.13 81.54 113.58 71.96 112.88 C 63.76 113.56 56.30 106.06 56.33 97.98 C 55.98 91.12 60.91 84.56 67.45 82.67 Z" />
<path fill="#ffffff" d=" M 309.77 86.75 C 314.40 83.39 320.36 83.93 325.57 85.40 C 326.01 85.79 326.87 86.56 327.31 86.95 C 327.80 87.00 328.80 87.11 329.29 87.16 C 331.24 89.20 333.76 91.07 334.30 94.03 C 334.21 96.94 331.81 98.97 329.84 100.80 C 324.97 105.44 317.06 106.01 311.34 102.63 C 307.87 98.32 306.68 91.59 309.77 86.75 Z" />
<path fill="#000003" d=" M 355.36 84.53 C 358.55 82.87 362.85 85.46 362.41 89.15 C 362.44 93.04 357.05 95.46 354.23 92.67 C 351.55 90.54 352.29 85.91 355.36 84.53 Z" />
<path fill="#ffffff" d=" M 390.65 85.41 C 393.05 84.95 395.43 84.12 397.91 84.24 C 400.57 84.72 403.09 85.74 405.69 86.47 C 406.58 88.92 407.98 91.35 407.83 94.03 C 407.10 98.33 405.72 102.89 401.44 104.86 C 397.39 104.67 392.79 105.91 389.32 103.19 C 388.86 103.12 387.92 102.99 387.45 102.93 C 384.80 100.14 381.37 97.19 381.12 93.11 C 382.25 90.73 384.54 89.16 386.37 87.35 C 387.82 86.75 389.25 86.12 390.65 85.41 Z" />
<path fill="#000000" d=" M 62.83 98.65 C 61.90 92.39 68.32 87.28 74.30 88.52 C 77.56 90.17 80.93 92.96 80.74 97.00 C 81.35 101.38 77.94 104.78 74.27 106.49 C 69.10 107.41 63.53 104.04 62.83 98.65 Z" />
<path fill="#000001" d=" M 322.14 100.50 C 317.34 98.85 318.94 90.61 324.12 91.08 C 327.15 90.66 328.68 93.56 329.46 95.98 C 328.67 99.16 325.53 101.96 322.14 100.50 Z" />
<path fill="#000000" d=" M 391.04 100.89 C 386.01 101.13 384.54 93.19 389.12 91.39 C 392.56 89.36 396.07 92.78 396.50 96.15 C 395.62 98.50 393.99 101.28 391.04 100.89 Z" />
<path fill="#fcfcfc" d=" M 72.50 92.99 C 73.13 92.61 74.39 91.86 75.02 91.48 C 75.68 91.80 77.00 92.43 77.67 92.75 C 77.59 93.97 77.51 95.19 77.42 96.41 C 76.12 96.51 74.82 96.60 73.52 96.68 C 73.18 95.45 72.83 94.22 72.50 92.99 Z" />
<path fill="#030a02" d=" M 195.58 104.72 C 197.73 103.20 199.77 101.39 202.29 100.49 C 204.30 99.92 205.59 101.99 207.06 102.96 C 205.68 102.14 204.31 101.30 202.94 100.46 C 200.87 101.64 198.83 102.88 196.82 104.18 C 201.04 107.58 206.09 109.66 210.62 112.57 C 213.01 113.81 215.30 115.77 218.10 115.79 C 220.62 115.15 222.73 113.57 224.95 112.30 C 228.90 109.88 233.20 108.13 237.40 106.21 C 236.21 104.28 234.86 102.46 233.34 100.78 C 231.56 101.51 229.79 102.24 228.01 102.93 C 229.77 102.04 231.54 101.17 233.32 100.32 C 235.12 102.25 236.89 104.21 238.64 106.19 C 233.21 109.13 226.65 110.48 222.42 115.25 C 234.02 117.99 245.40 122.76 254.66 130.40 C 254.97 141.76 255.16 153.51 251.36 164.39 C 251.45 155.61 251.95 146.83 251.48 138.05 C 251.35 136.14 251.24 133.78 249.35 132.72 C 241.15 127.48 231.65 124.76 222.19 122.82 C 222.24 120.21 222.30 117.60 222.40 114.99 C 220.08 115.48 217.51 117.25 215.23 115.69 C 208.61 112.16 202.26 108.14 195.58 104.72 Z" />
<path fill="#166922" d=" M 348.97 112.27 C 352.03 112.51 353.99 109.41 356.94 109.15 C 360.37 108.60 363.95 110.39 365.84 113.25 C 363.57 114.93 360.94 116.78 357.96 116.34 C 355.21 116.25 353.23 114.18 351.24 112.57 C 345.43 112.32 339.66 111.56 333.85 111.37 C 338.92 111.10 343.92 112.08 348.97 112.27 Z" />
<path fill="#020a01" d=" M 173.37 128.41 C 184.66 121.23 197.81 117.01 211.05 115.39 C 210.99 117.73 211.61 120.25 210.71 122.47 C 199.36 124.74 187.77 126.65 177.12 131.44 C 174.41 140.89 174.86 150.82 174.60 160.54 C 172.09 150.06 171.62 139.06 173.37 128.41 Z" />
<path fill="#050702" d=" M 116.30 121.61 C 118.57 121.34 120.83 121.04 123.12 121.02 C 125.75 121.29 127.97 122.97 129.88 124.68 C 127.60 124.00 125.30 123.38 122.93 123.14 C 115.27 138.55 101.03 151.17 83.99 154.89 C 73.20 157.46 61.74 156.26 51.36 152.56 C 41.62 148.51 32.76 141.85 26.84 133.04 C 25.11 134.06 23.40 135.13 21.68 136.17 C 22.96 131.26 29.45 129.34 33.84 131.03 C 32.11 131.60 30.36 132.12 28.61 132.64 C 36.57 142.88 48.04 150.70 60.95 152.87 C 73.23 155.43 86.29 153.15 97.32 147.33 C 107.42 141.57 115.96 132.89 121.25 122.51 C 119.61 122.14 117.93 122.02 116.30 121.61 Z" />
<path fill="#050702" d=" M 181.78 134.69 C 189.46 131.19 197.73 129.13 206.04 127.81 C 210.20 126.93 213.83 129.81 217.89 129.89 C 221.85 129.61 225.75 128.00 229.75 128.84 C 235.76 130.09 240.98 133.52 246.73 135.53 C 246.23 135.73 245.70 135.94 245.21 135.62 C 240.06 133.15 234.99 130.24 229.30 129.18 C 225.81 128.58 222.39 129.74 218.96 130.21 C 215.15 130.89 211.81 128.04 208.01 128.31 C 198.96 128.91 190.33 131.89 181.78 134.69 Z" />
<path fill="#030603" d=" M 78.05 162.93 C 81.95 162.62 85.51 160.79 89.31 160.01 C 81.50 166.92 69.19 167.89 60.03 163.11 C 59.29 162.43 58.55 161.75 57.81 161.07 C 64.31 163.33 71.25 163.69 78.05 162.93 Z" />
</svg>
